# xmcd CD Database Entry
#
# Track frame offsets:
# 150
# 15829
# 31370
# 52644
# 64003
# 80469
# 94307
# 111709
# 127185
# 142191
# 155530
# 183629
# 198408
# 213718
#
# Disc length: 2986 seconds
#
# Revision: 1
# Processed by: cddbd v1.4b41PL1 Copyright (c) Steve Scherf et al.
# Submitted via: tcd 2.0b
#
DISCID=cc0ba80e
DTITLE=After Class - Faith Of Our Fathers
DYEAR=1900
DGENRE=
TTITLE0=Amazing Grace
TTITLE1=He Leadeth Me
TTITLE2=Rock O Ages - Nothing But The Blood
TTITLE3=Just As I Am
TTITLE4=Simple Gifts
TTITLE5=Fairest Lord Jesus
TTITLE6=Faith Of Our Fathers
TTITLE7=It Is Well With My Soul
TTITLE8=There Is A Fountain
TTITLE9=Be Thou My Vision
TTITLE10=Blessed Assurance
TTITLE11=Nearer My God To Thee
TTITLE12=Sweet Hour Of Prayer
TTITLE13=Jesus Loves Me
EXTD=
EXTT0=
EXTT1=
EXTT2=
EXTT3=
EXTT4=
EXTT5=
EXTT6=
EXTT7=
EXTT8=
EXTT9=
EXTT10=
EXTT11=
EXTT12=
EXTT13=
PLAYORDER=
